# xmcd CD database file
#
# Track frame offsets:
#	150
#	15729
#	31555
#	47084
#
# Disc length: 833 seconds
#
# Revision: 0
# Processed by: cddbd v1.5.1PL0 Copyright (c) Steve Scherf et al.
# Submitted via: CDex 1.51
#
DISCID=22033f04
DTITLE=伊月ゆい／綱掛裕美／堀江由衣／小清水亜美／門脇舞／水橋かおり／落合祐里香／長谷川静香／吉住梢／桑谷夏子／三五美奈子／たかはし智秋 - 恋泥棒ごっこ
DYEAR=2005
DGENRE=Anime
TTITLE0=恋泥棒ごっこ
TTITLE1=笑顔のそらで会いましょう
TTITLE2=恋泥棒ごっこ（ｏｆｆ　ｖｏｃａｌ）
TTITLE3=笑顔のそらで会いましょう（ｏｆｆ　ｖｏｃａｌ）
EXTD=YEAR: 2005
EXTT0=
EXTT1=
EXTT2=
EXTT3=
PLAYORDER=
